<?xml version="1.0" encoding="UTF-8" standalone="no"?>
<!DOCTYPE svg PUBLIC "-//W3C//DTD SVG 1.1//EN" "http://www.w3.org/Graphics/SVG/1.1/DTD/svg11.dtd">
<svg xmlns="http://www.w3.org/2000/svg" version="1.1" viewBox="0.00 0.00 328.00 336.00">
<g stroke-width="5.00" fill="none" stroke-linecap="butt">
<path stroke="#fad9a4" vector-effect="non-scaling-stroke" d="
  M 238.77 81.96
  C 238.59 89.22 238.90 97.53 239.49 103.86
  Q 241.66 126.89 257.66 144.58"
/>
<path stroke="#8fd0ac" vector-effect="non-scaling-stroke" d="
  M 238.54 210.50
  C 234.87 206.72 229.26 212.98 234.27 216.50"
/>
<path stroke="#fad9a4" vector-effect="non-scaling-stroke" d="
  M 202.11 245.09
  C 194.47 245.01 187.11 246.67 179.93 243.36
  C 172.39 239.89 165.65 233.80 160.04 228.04
  Q 145.15 212.78 140.94 208.81
  C 132.20 200.58 123.93 194.24 111.18 194.42"
/>
<path stroke="#fde97e" vector-effect="non-scaling-stroke" d="
  M 111.18 194.42
  L 105.49 191.77
  Q 105.02 191.54 104.72 191.98
  L 102.85 194.72"
/>
<path stroke="#fad9a4" vector-effect="non-scaling-stroke" d="
  M 102.85 194.72
  C 95.41 195.80 83.68 197.77 76.87 194.94
  C 70.39 192.24 66.28 186.77 63.54 180.49
  C 56.11 163.41 50.10 145.11 48.53 126.01
  Q 47.69 115.80 52.62 104.42"
/>
<path stroke="#8fd0ac" vector-effect="non-scaling-stroke" d="
  M 52.62 104.42
  C 57.20 106.49 60.62 101.48 56.51 97.62"
/>
<path stroke="#fad9a4" vector-effect="non-scaling-stroke" d="
  M 56.51 97.62
  C 60.75 92.43 67.18 87.31 73.25 84.39
  C 86.02 78.26 100.34 73.46 111.07 65.07
  C 121.88 56.61 123.06 45.53 124.56 32.73"
/>
<path stroke="#8dad55" vector-effect="non-scaling-stroke" d="
  M 56.51 97.62
  Q 53.11 96.38 51.50 99.25
  Q 49.82 102.26 52.62 104.42"
/>
<path stroke="#fcc626" vector-effect="non-scaling-stroke" d="
  M 102.85 194.72
  Q 103.08 196.18 101.76 196.91
  A 0.41 0.41 0.0 0 0 101.76 197.63
  L 107.13 200.62
  Q 107.61 200.89 107.87 200.41
  L 111.18 194.42"
/>
<path stroke="#fcc626" vector-effect="non-scaling-stroke" d="
  M 51.97 80.03
  Q 54.26 80.89 55.51 81.99
  A 0.55 0.54 34.5 0 0 56.35 81.84
  L 59.02 76.90
  Q 59.36 76.26 58.78 75.84
  L 56.39 74.08"
/>
<path stroke="#fde97e" vector-effect="non-scaling-stroke" d="
  M 161.2965 153.6814
  A 21.50 21.19 85.1 0 0 180.5726 130.4500
  A 21.50 21.19 85.1 0 0 157.6235 110.8386
  A 21.50 21.19 85.1 0 0 138.3474 134.0700
  A 21.50 21.19 85.1 0 0 161.2965 153.6814"
/>
<path stroke="#8fd0ac" vector-effect="non-scaling-stroke" d="
  M 189.37 119.55
  L 184.95 122.01
  A 1.59 1.59 0.0 0 0 184.33 124.17
  L 188.48 131.62
  A 7.45 3.68 60.9 0 0 195.32 136.34
  L 196.08 135.91
  A 7.45 3.68 60.9 0 0 195.68 127.61
  L 191.53 120.16
  A 1.59 1.59 0.0 0 0 189.37 119.55"
/>
<path stroke="#8fd0ac" vector-effect="non-scaling-stroke" d="
  M 138.35 149.62
  L 133.78 152.18
  A 1.45 1.45 0.0 0 0 133.23 154.16
  L 137.36 161.53
  A 7.32 3.13 60.7 0 0 143.67 166.38
  L 145.31 165.46
  A 7.32 3.13 60.7 0 0 144.46 157.54
  L 140.33 150.17
  A 1.45 1.45 0.0 0 0 138.35 149.62"
/>
<path stroke="#fde97e" vector-effect="non-scaling-stroke" d="
  M 238.2829 166.6876
  A 0.26 0.26 0.0 0 0 238.1803 166.3345
  L 232.5720 163.2513
  A 0.26 0.26 0.0 0 0 232.2189 163.3539
  L 229.0971 169.0324
  A 0.26 0.26 0.0 0 0 229.1997 169.3855
  L 234.8080 172.4687
  A 0.26 0.26 0.0 0 0 235.1611 172.3661
  L 238.2829 166.6876"
/>
<path stroke="#8fd0ac" vector-effect="non-scaling-stroke" d="
  M 91.48 176.39
  A 3.76 3.76 0.0 0 0 87.72 172.63
  A 3.76 3.76 0.0 0 0 83.96 176.39
  A 3.76 3.76 0.0 0 0 87.72 180.15
  A 3.76 3.76 0.0 0 0 91.48 176.39"
/>
<path stroke="#fde97e" vector-effect="non-scaling-stroke" d="
  M 159.9433 148.3945
  A 16.17 15.83 88.5 0 0 175.3446 131.8156
  A 16.17 15.83 88.5 0 0 159.0967 116.0655
  A 16.17 15.83 88.5 0 0 143.6954 132.6444
  A 16.17 15.83 88.5 0 0 159.9433 148.3945"
/>
<path stroke="#8fd0ac" vector-effect="non-scaling-stroke" d="
  M 194.6674 134.4720
  A 2.42 1.40 63.3 0 0 194.8307 131.6810
  A 2.42 1.40 63.3 0 0 192.4926 130.1480
  A 2.42 1.40 63.3 0 0 192.3293 132.9390
  A 2.42 1.40 63.3 0 0 194.6674 134.4720"
/>
<path stroke="#8fd0ac" vector-effect="non-scaling-stroke" d="
  M 143.6059 164.4920
  A 2.46 1.36 62.5 0 0 143.6763 161.6820
  A 2.46 1.36 62.5 0 0 141.3341 160.1280
  A 2.46 1.36 62.5 0 0 141.2637 162.9380
  A 2.46 1.36 62.5 0 0 143.6059 164.4920"
/>
</g>
<circle fill="#f8b64c" cx="212.79" cy="16.41" r="4.93"/>
<rect fill="#ffd600" x="-4.58" y="-4.59" transform="translate(253.19,28.22) rotate(29.0)" width="9.16" height="9.18" rx="0.27"/>
<path fill="#fbfbfb" d="
  M 238.77 81.96
  C 238.59 89.22 238.90 97.53 239.49 103.86
  Q 241.66 126.89 257.66 144.58
  Q 258.05 147.26 257.58 153.25
  C 256.78 163.51 255.58 170.53 252.81 180.01
  Q 248.03 196.39 238.54 210.50
  C 234.87 206.72 229.26 212.98 234.27 216.50
  Q 222.50 231.92 206.24 242.68
  Q 204.12 244.08 202.11 245.09
  C 194.47 245.01 187.11 246.67 179.93 243.36
  C 172.39 239.89 165.65 233.80 160.04 228.04
  Q 145.15 212.78 140.94 208.81
  C 132.20 200.58 123.93 194.24 111.18 194.42
  L 105.49 191.77
  Q 105.02 191.54 104.72 191.98
  L 102.85 194.72
  C 95.41 195.80 83.68 197.77 76.87 194.94
  C 70.39 192.24 66.28 186.77 63.54 180.49
  C 56.11 163.41 50.10 145.11 48.53 126.01
  Q 47.69 115.80 52.62 104.42
  C 57.20 106.49 60.62 101.48 56.51 97.62
  C 60.75 92.43 67.18 87.31 73.25 84.39
  C 86.02 78.26 100.34 73.46 111.07 65.07
  C 121.88 56.61 123.06 45.53 124.56 32.73
  Q 139.86 29.89 155.48 31.57
  C 158.97 31.94 162.49 32.08 165.82 32.77
  Q 209.90 41.82 236.43 78.30
  Q 237.77 80.14 238.77 81.96
  Z
  M 161.2965 153.6814
  A 21.50 21.19 85.1 0 0 180.5726 130.4500
  A 21.50 21.19 85.1 0 0 157.6235 110.8386
  A 21.50 21.19 85.1 0 0 138.3474 134.0700
  A 21.50 21.19 85.1 0 0 161.2965 153.6814
  Z
  M 189.37 119.55
  L 184.95 122.01
  A 1.59 1.59 0.0 0 0 184.33 124.17
  L 188.48 131.62
  A 7.45 3.68 60.9 0 0 195.32 136.34
  L 196.08 135.91
  A 7.45 3.68 60.9 0 0 195.68 127.61
  L 191.53 120.16
  A 1.59 1.59 0.0 0 0 189.37 119.55
  Z
  M 138.35 149.62
  L 133.78 152.18
  A 1.45 1.45 0.0 0 0 133.23 154.16
  L 137.36 161.53
  A 7.32 3.13 60.7 0 0 143.67 166.38
  L 145.31 165.46
  A 7.32 3.13 60.7 0 0 144.46 157.54
  L 140.33 150.17
  A 1.45 1.45 0.0 0 0 138.35 149.62
  Z
  M 238.2829 166.6876
  A 0.26 0.26 0.0 0 0 238.1803 166.3345
  L 232.5720 163.2513
  A 0.26 0.26 0.0 0 0 232.2189 163.3539
  L 229.0971 169.0324
  A 0.26 0.26 0.0 0 0 229.1997 169.3855
  L 234.8080 172.4687
  A 0.26 0.26 0.0 0 0 235.1611 172.3661
  L 238.2829 166.6876
  Z
  M 91.48 176.39
  A 3.76 3.76 0.0 0 0 87.72 172.63
  A 3.76 3.76 0.0 0 0 83.96 176.39
  A 3.76 3.76 0.0 0 0 87.72 180.15
  A 3.76 3.76 0.0 0 0 91.48 176.39
  Z"
/>
<path fill="#f8b64c" d="
  M 124.56 32.73
  C 123.06 45.53 121.88 56.61 111.07 65.07
  C 100.34 73.46 86.02 78.26 73.25 84.39
  C 67.18 87.31 60.75 92.43 56.51 97.62
  Q 53.11 96.38 51.50 99.25
  Q 49.82 102.26 52.62 104.42
  Q 47.69 115.80 48.53 126.01
  C 50.10 145.11 56.11 163.41 63.54 180.49
  C 66.28 186.77 70.39 192.24 76.87 194.94
  C 83.68 197.77 95.41 195.80 102.85 194.72
  Q 103.08 196.18 101.76 196.91
  A 0.41 0.41 0.0 0 0 101.76 197.63
  L 107.13 200.62
  Q 107.61 200.89 107.87 200.41
  L 111.18 194.42
  C 123.93 194.24 132.20 200.58 140.94 208.81
  Q 145.15 212.78 160.04 228.04
  C 165.65 233.80 172.39 239.89 179.93 243.36
  C 187.11 246.67 194.47 245.01 202.11 245.09
  C 159.93 270.10 106.69 264.94 70.18 232.44
  Q 69.80 232.11 69.45 232.46
  C 64.61 237.18 57.96 230.68 62.40 225.51
  Q 62.71 225.15 62.40 224.80
  C 25.79 184.33 21.65 125.43 51.97 80.03
  Q 54.26 80.89 55.51 81.99
  A 0.55 0.54 34.5 0 0 56.35 81.84
  L 59.02 76.90
  Q 59.36 76.26 58.78 75.84
  L 56.39 74.08
  Q 82.80 40.96 124.56 32.73
  Z"
/>
<path fill="#ffd600" d="
  M 56.39 74.08
  L 58.78 75.84
  Q 59.36 76.26 59.02 76.90
  L 56.35 81.84
  A 0.55 0.54 34.5 0 1 55.51 81.99
  Q 54.26 80.89 51.97 80.03
  L 56.39 74.08
  Z"
/>
<path fill="#f8b64c" d="
  M 238.77 81.96
  Q 257.06 110.24 257.66 144.58
  Q 241.66 126.89 239.49 103.86
  C 238.90 97.53 238.59 89.22 238.77 81.96
  Z"
/>
<rect fill="#ffd600" x="-4.59" y="-4.58" transform="translate(22.20,100.68) rotate(28.9)" width="9.18" height="9.16" rx="0.27"/>
<path fill="#22a45d" d="
  M 56.51 97.62
  C 60.62 101.48 57.20 106.49 52.62 104.42
  Q 49.82 102.26 51.50 99.25
  Q 53.11 96.38 56.51 97.62
  Z"
/>
<path fill="#ffd600" d="
  M 161.2965 153.6814
  A 21.50 21.19 85.1 0 1 138.3474 134.0700
  A 21.50 21.19 85.1 0 1 157.6235 110.8386
  A 21.50 21.19 85.1 0 1 180.5726 130.4500
  A 21.50 21.19 85.1 0 1 161.2965 153.6814
  Z
  M 159.9433 148.3945
  A 16.17 15.83 88.5 0 0 175.3446 131.8156
  A 16.17 15.83 88.5 0 0 159.0967 116.0655
  A 16.17 15.83 88.5 0 0 143.6954 132.6444
  A 16.17 15.83 88.5 0 0 159.9433 148.3945
  Z"
/>
<ellipse fill="#fbfbfb" cx="0.00" cy="0.00" transform="translate(159.52,132.23) rotate(88.5)" rx="16.17" ry="15.83"/>
<path fill="#22a45d" d="
  M 189.37 119.55
  A 1.59 1.59 0.0 0 1 191.53 120.16
  L 195.68 127.61
  A 7.45 3.68 60.9 0 1 196.08 135.91
  L 195.32 136.34
  A 7.45 3.68 60.9 0 1 188.48 131.62
  L 184.33 124.17
  A 1.59 1.59 0.0 0 1 184.95 122.01
  L 189.37 119.55
  Z
  M 194.6674 134.4720
  A 2.42 1.40 63.3 0 0 194.8307 131.6810
  A 2.42 1.40 63.3 0 0 192.4926 130.1480
  A 2.42 1.40 63.3 0 0 192.3293 132.9390
  A 2.42 1.40 63.3 0 0 194.6674 134.4720
  Z"
/>
<circle fill="#f8b64c" cx="22.11" cy="131.41" r="4.93"/>
<ellipse fill="#fbfbfb" cx="0.00" cy="0.00" transform="translate(193.58,132.31) rotate(63.3)" rx="2.42" ry="1.40"/>
<path fill="#22a45d" d="
  M 138.35 149.62
  A 1.45 1.45 0.0 0 1 140.33 150.17
  L 144.46 157.54
  A 7.32 3.13 60.7 0 1 145.31 165.46
  L 143.67 166.38
  A 7.32 3.13 60.7 0 1 137.36 161.53
  L 133.23 154.16
  A 1.45 1.45 0.0 0 1 133.78 152.18
  L 138.35 149.62
  Z
  M 143.6059 164.4920
  A 2.46 1.36 62.5 0 0 143.6763 161.6820
  A 2.46 1.36 62.5 0 0 141.3341 160.1280
  A 2.46 1.36 62.5 0 0 141.2637 162.9380
  A 2.46 1.36 62.5 0 0 143.6059 164.4920
  Z"
/>
<ellipse fill="#fbfbfb" cx="0.00" cy="0.00" transform="translate(142.47,162.31) rotate(62.5)" rx="2.46" ry="1.36"/>
<rect fill="#ffd600" x="-3.46" y="-3.50" transform="translate(233.69,167.86) rotate(28.8)" width="6.92" height="7.00" rx="0.26"/>
<circle fill="#22a45d" cx="87.72" cy="176.39" r="3.76"/>
<path fill="#ffd600" d="
  M 111.18 194.42
  L 107.87 200.41
  Q 107.61 200.89 107.13 200.62
  L 101.76 197.63
  A 0.41 0.41 0.0 0 1 101.76 196.91
  Q 103.08 196.18 102.85 194.72
  L 104.72 191.98
  Q 105.02 191.54 105.49 191.77
  L 111.18 194.42
  Z"
/>
<path fill="#22a45d" d="
  M 238.54 210.50
  L 234.27 216.50
  C 229.26 212.98 234.87 206.72 238.54 210.50
  Z"
/>
<rect fill="#ffd600" x="-4.59" y="-4.58" transform="translate(258.72,218.06) rotate(29.1)" width="9.18" height="9.16" rx="0.27"/>
<rect fill="#ffd600" x="-4.59" y="-4.58" transform="translate(90.34,254.87) rotate(29.0)" width="9.18" height="9.16" rx="0.27"/>
<circle fill="#f8b64c" cx="259.85" cy="277.16" r="4.92"/>
</svg>
