<svg width="32" height="32" viewBox="0 0 32 32" fill="none" xmlns="http://www.w3.org/2000/svg">
<g id="Tech Logos / Google">
<g id="Group">
<path id="Vector" d="M24.7146 16.6226C24.7146 15.9858 24.653 15.3285 24.5503 14.7122H15.6561V18.348H20.7502C20.5448 19.5188 19.867 20.5459 18.8605 21.2032L21.9005 23.5654C23.6876 21.9016 24.7146 19.4778 24.7146 16.6226Z" fill="#4280EF"/>
<path id="Vector_2" d="M15.6577 25.8249C18.2047 25.8249 20.341 24.9827 21.9021 23.5448L18.862 21.2031C18.0199 21.7783 16.9312 22.107 15.6577 22.107C13.1927 22.107 11.1181 20.4431 10.3581 18.2247L7.23584 20.628C8.83804 23.8119 12.0835 25.8249 15.6577 25.8249Z" fill="#34A353"/>
<path id="Vector_3" d="M10.3573 18.2042C9.96703 17.0334 9.96703 15.7599 10.3573 14.589L7.23508 12.1652C5.89991 14.8355 5.89991 17.9783 7.23508 20.6281L10.3573 18.2042Z" fill="#F6B704"/>
<path id="Vector_4" d="M15.6577 10.7069C16.9928 10.6863 18.3074 11.1999 19.2729 12.1242L21.9637 9.41279C20.2588 7.81059 17.9993 6.94787 15.6577 6.96841C12.0835 6.96841 8.83804 8.98143 7.23584 12.1653L10.3581 14.5891C11.1181 12.3501 13.1927 10.7069 15.6577 10.7069Z" fill="#E54335"/>
</g>
</g>
</svg>
