<svg width="21" height="25" viewBox="0 0 21 25" fill="none" xmlns="http://www.w3.org/2000/svg">
<g id="Group 76">
<g id="Group 74">
<path id="Path 28" d="M19.6389 12.4659C19.1258 11.8642 18.7116 11.1846 18.4119 10.4528C18.1865 9.88314 18.0728 9.27553 18.0769 8.6629V8.44183C18.0769 6.33708 17.2408 4.31855 15.7526 2.83026C14.2643 1.34197 12.2456 0.50592 10.1409 0.50592C8.03557 0.50592 6.01661 1.34221 4.52794 2.83087C3.03928 4.31954 2.20287 6.33862 2.20287 8.44391V8.66693C2.20702 9.27613 2.09396 9.88034 1.86986 10.4468C1.57004 11.1805 1.15517 11.8618 0.640858 12.4649C0.33607 12.9738 0.134704 13.5377 0.0482067 14.1246C-0.0382906 14.7114 -0.00817138 15.3095 0.13683 15.8847C0.281831 16.4599 0.538819 17.0008 0.893177 17.4765C1.24754 17.9522 1.69229 18.3534 2.20189 18.6569C2.20762 18.6616 2.21407 18.6652 2.22094 18.6679L2.27489 18.6989C2.40672 18.768 2.54298 18.828 2.68285 18.8788C2.73685 18.8998 2.79788 18.9219 2.86388 18.9449C3.05384 19.0154 3.24791 19.0746 3.44494 19.1219C3.48294 19.1299 3.51985 19.1409 3.55785 19.1459H3.56591L3.79296 19.1999C3.95196 19.2359 4.1239 19.2708 4.3109 19.3068L4.60289 19.3588C4.80289 19.3928 5.0239 19.4269 5.2589 19.4589C5.4939 19.4909 5.7449 19.5219 6.01391 19.5499C7.38464 19.6863 8.76141 19.753 10.1389 19.7498C10.9389 19.7498 11.6609 19.7379 12.3159 19.7099C13.4609 19.6599 14.3929 19.5699 15.1479 19.4619C15.4709 19.4159 15.7629 19.3619 16.0229 19.3149C16.7424 19.2251 17.4386 19.0015 18.0759 18.6558C18.5855 18.3525 19.0303 17.9517 19.3848 17.4763C19.7392 17.0008 19.9964 16.4601 20.1416 15.8851C20.2868 15.3101 20.3171 14.7122 20.2308 14.1254C20.1446 13.5387 19.9434 12.9748 19.6389 12.4659Z" fill="white"/>
<path id="Path 29" d="M13.2419 21.4334C12.2528 21.0616 11.1965 20.9028 10.1419 20.9673C9.08728 20.9028 8.03095 21.0617 7.04191 21.4334C6.8855 21.5257 6.76114 21.6638 6.68584 21.8291C6.61053 21.9944 6.5879 22.1788 6.62089 22.3574C6.78661 22.8656 7.0887 23.3184 7.49431 23.6666C7.89992 24.0147 8.39339 24.2447 8.92082 24.3314C9.72237 24.5486 10.5673 24.5486 11.3688 24.3314C11.8963 24.2449 12.3899 24.015 12.7956 23.6668C13.2012 23.3187 13.5034 22.8657 13.6689 22.3574C13.7014 22.1782 13.6779 21.9932 13.6015 21.8279C13.5251 21.6625 13.3995 21.5247 13.2419 21.4334Z" fill="white"/>
</g>
</g>
</svg>
