<?xml version="1.0" encoding="UTF-8" standalone="no"?>
<!DOCTYPE svg PUBLIC "-//W3C//DTD SVG 1.1//EN" "http://www.w3.org/Graphics/SVG/1.1/DTD/svg11.dtd">
<svg xmlns="http://www.w3.org/2000/svg" version="1.1" viewBox="0.00 0.00 24.00 24.00">
<g stroke-width="5.00" fill="none" stroke-linecap="butt">
<path stroke="#4e683a" vector-effect="non-scaling-stroke" d="
  M 13.47 3.75
  Q 12.15 1.52 10.16 2.10
  Q 7.72 2.80 9.88 4.13
  L 14.42 6.92
  A 0.60 0.60 0.0 0 0 15.25 6.73
  Q 16.19 5.25 17.56 4.17
  Q 17.94 3.87 17.72 3.44
  Q 17.29 2.56 16.01 2.82
  Q 15.35 2.95 14.07 3.88
  Q 13.70 4.14 13.47 3.75"
/>
<path stroke="#4e683a" vector-effect="non-scaling-stroke" d="
  M 8.37 4.38
  Q 6.49 3.89 4.89 5.20
  A 0.71 0.71 0.0 0 0 4.75 6.16
  L 4.96 6.46
  Q 5.40 7.08 6.04 6.67
  Q 7.62 5.66 9.51 6.16
  Q 13.02 7.10 10.13 4.87
  Q 10.04 4.80 8.37 4.38"
/>
<path stroke="#4e683a" vector-effect="non-scaling-stroke" d="
  M 18.29 9.31
  Q 18.99 10.69 18.73 12.29
  A 0.35 0.34 -15.2 0 0 19.29 12.61
  L 20.72 11.42
  A 0.26 0.26 0.0 0 1 21.08 11.46
  L 21.31 11.75
  Q 21.47 11.94 21.27 12.08
  Q 19.72 13.18 18.32 14.30
  Q 17.72 14.78 18.08 15.76
  Q 18.28 16.30 18.69 15.90
  Q 19.14 15.47 19.72 15.27
  A 0.26 0.25 -13.9 0 1 20.06 15.47
  Q 20.09 15.74 19.88 15.88
  Q 19.36 16.23 19.17 16.27
  Q 16.74 16.73 16.36 19.19
  A 0.33 0.33 0.0 0 0 16.81 19.55
  C 18.94 18.73 20.11 16.96 21.20 14.90
  Q 23.31 10.93 20.88 6.76
  Q 20.60 6.28 20.10 6.03
  L 18.20 5.05
  A 0.73 0.72 -59.3 0 0 17.28 5.29
  C 14.36 9.56 8.99 9.88 9.99 15.23
  Q 10.64 18.71 12.38 20.67
  Q 12.73 21.06 12.21 20.97
  L 10.89 20.73
  A 0.75 0.75 0.0 0 0 10.02 21.58
  Q 10.24 23.21 13.20 21.90
  A 1.13 1.06 5.3 0 0 13.60 21.59
  L 15.51 19.30
  A 1.68 1.68 0.0 0 0 15.15 16.83
  Q 12.95 15.36 11.49 13.24
  Q 11.43 13.16 11.51 13.10
  L 11.71 12.94
  Q 11.81 12.87 11.90 12.95
  L 15.51 16.38
  A 0.90 0.90 0.0 0 0 17.03 15.85
  L 17.19 14.56
  A 0.62 0.62 0.0 0 0 16.80 13.89
  Q 15.06 13.19 14.17 11.53
  Q 13.60 10.49 14.57 11.18
  Q 15.88 12.11 16.59 12.89
  Q 18.27 14.72 17.99 12.25
  L 17.68 9.49
  A 0.32 0.32 0.0 0 1 18.29 9.31"
/>
<path stroke="#707b65" vector-effect="non-scaling-stroke" d="
  M 6.96 14.21
  Q 4.84 16.50 7.08 18.80
  A 3.66 3.57 78.8 0 0 8.23 19.59
  L 9.64 20.18
  Q 11.20 20.84 10.44 19.33
  L 7.91 14.27"
/>
<path stroke="#4e683a" vector-effect="non-scaling-stroke" d="
  M 7.91 14.27
  C 8.89 12.70 9.43 11.28 10.86 10.02
  Q 12.12 8.92 12.84 8.03
  Q 13.75 6.89 12.29 6.93
  L 7.44 7.05
  A 0.51 0.51 0.0 0 0 7.02 7.83
  Q 8.23 9.72 8.31 11.96
  Q 8.32 12.13 8.14 12.16
  L 7.86 12.19
  Q 7.85 12.19 7.85 12.18
  Q 7.50 10.20 6.46 8.52
  Q 6.17 8.06 5.67 7.86
  Q 4.42 7.36 3.89 6.08
  A 0.57 0.56 71.2 0 0 3.22 5.75
  Q 3.09 5.78 2.97 5.82
  A 0.80 0.79 -8.7 0 0 2.44 6.54
  C 2.36 8.53 1.62 11.05 2.09 13.33
  C 2.35 14.63 3.24 15.50 3.80 16.68
  Q 5.05 19.35 4.62 16.50
  L 4.28 14.23
  Q 4.27 14.16 4.34 14.15
  Q 4.56 14.11 4.80 14.15
  Q 5.13 14.20 4.96 14.48
  L 4.82 14.73
  Q 4.69 14.96 4.95 15.04
  Q 5.28 15.13 5.63 14.96
  Q 5.90 14.84 5.89 14.55
  Q 5.88 14.37 5.88 14.19
  A 0.35 0.35 0.0 0 1 6.25 13.83
  L 7.00 13.87
  Q 7.07 13.87 6.99 14.02
  Q 6.95 14.10 6.96 14.21"
/>
<path stroke="#bce29b" vector-effect="non-scaling-stroke" d="
  M 7.91 14.27
  Q 7.46 14.55 6.96 14.21"
/>
<path stroke="#4e683a" vector-effect="non-scaling-stroke" d="
  M 3.74 13.87
  Q 4.18 14.22 4.11 13.66
  Q 4.02 12.98 3.47 12.54
  A 0.21 0.21 0.0 0 0 3.13 12.71
  Q 3.18 13.42 3.74 13.87"
/>
</g>
<path fill="#020104" fill-opacity="0.996" d="
  M 4.26 4.76
  L 8.90 1.75
  A 2.56 2.55 35.9 0 1 10.97 1.42
  Q 13.44 2.09 15.99 1.74
  A 2.34 2.34 0.0 0 1 18.24 2.73
  Q 19.37 4.39 21.07 5.41
  A 1.58 1.51 -85.5 0 1 21.73 6.22
  Q 25.62 16.93 15.41 20.91
  A 1.32 1.32 0.0 0 0 14.65 21.67
  L 14.25 22.70
  A 0.69 0.68 -79.5 0 1 13.63 23.13
  L 10.13 23.16
  A 0.81 0.80 -11.7 0 1 9.39 22.68
  L 8.84 21.35
  Q 8.63 20.86 8.13 20.68
  Q 2.23 18.57 1.23 12.70
  C 0.89 10.75 1.68 8.58 1.74 6.44
  Q 1.76 5.54 2.15 5.18
  Q 2.63 4.74 3.45 4.91
  Q 3.89 5.00 4.26 4.76
  Z
  M 13.47 3.75
  Q 12.15 1.52 10.16 2.10
  Q 7.72 2.80 9.88 4.13
  L 14.42 6.92
  A 0.60 0.60 0.0 0 0 15.25 6.73
  Q 16.19 5.25 17.56 4.17
  Q 17.94 3.87 17.72 3.44
  Q 17.29 2.56 16.01 2.82
  Q 15.35 2.95 14.07 3.88
  Q 13.70 4.14 13.47 3.75
  Z
  M 8.37 4.38
  Q 6.49 3.89 4.89 5.20
  A 0.71 0.71 0.0 0 0 4.75 6.16
  L 4.96 6.46
  Q 5.40 7.08 6.04 6.67
  Q 7.62 5.66 9.51 6.16
  Q 13.02 7.10 10.13 4.87
  Q 10.04 4.80 8.37 4.38
  Z
  M 18.29 9.31
  Q 18.99 10.69 18.73 12.29
  A 0.35 0.34 -15.2 0 0 19.29 12.61
  L 20.72 11.42
  A 0.26 0.26 0.0 0 1 21.08 11.46
  L 21.31 11.75
  Q 21.47 11.94 21.27 12.08
  Q 19.72 13.18 18.32 14.30
  Q 17.72 14.78 18.08 15.76
  Q 18.28 16.30 18.69 15.90
  Q 19.14 15.47 19.72 15.27
  A 0.26 0.25 -13.9 0 1 20.06 15.47
  Q 20.09 15.74 19.88 15.88
  Q 19.36 16.23 19.17 16.27
  Q 16.74 16.73 16.36 19.19
  A 0.33 0.33 0.0 0 0 16.81 19.55
  C 18.94 18.73 20.11 16.96 21.20 14.90
  Q 23.31 10.93 20.88 6.76
  Q 20.60 6.28 20.10 6.03
  L 18.20 5.05
  A 0.73 0.72 -59.3 0 0 17.28 5.29
  C 14.36 9.56 8.99 9.88 9.99 15.23
  Q 10.64 18.71 12.38 20.67
  Q 12.73 21.06 12.21 20.97
  L 10.89 20.73
  A 0.75 0.75 0.0 0 0 10.02 21.58
  Q 10.24 23.21 13.20 21.90
  A 1.13 1.06 5.3 0 0 13.60 21.59
  L 15.51 19.30
  A 1.68 1.68 0.0 0 0 15.15 16.83
  Q 12.95 15.36 11.49 13.24
  Q 11.43 13.16 11.51 13.10
  L 11.71 12.94
  Q 11.81 12.87 11.90 12.95
  L 15.51 16.38
  A 0.90 0.90 0.0 0 0 17.03 15.85
  L 17.19 14.56
  A 0.62 0.62 0.0 0 0 16.80 13.89
  Q 15.06 13.19 14.17 11.53
  Q 13.60 10.49 14.57 11.18
  Q 15.88 12.11 16.59 12.89
  Q 18.27 14.72 17.99 12.25
  L 17.68 9.49
  A 0.32 0.32 0.0 0 1 18.29 9.31
  Z
  M 6.96 14.21
  Q 4.84 16.50 7.08 18.80
  A 3.66 3.57 78.8 0 0 8.23 19.59
  L 9.64 20.18
  Q 11.20 20.84 10.44 19.33
  L 7.91 14.27
  C 8.89 12.70 9.43 11.28 10.86 10.02
  Q 12.12 8.92 12.84 8.03
  Q 13.75 6.89 12.29 6.93
  L 7.44 7.05
  A 0.51 0.51 0.0 0 0 7.02 7.83
  Q 8.23 9.72 8.31 11.96
  Q 8.32 12.13 8.14 12.16
  L 7.86 12.19
  Q 7.85 12.19 7.85 12.18
  Q 7.50 10.20 6.46 8.52
  Q 6.17 8.06 5.67 7.86
  Q 4.42 7.36 3.89 6.08
  A 0.57 0.56 71.2 0 0 3.22 5.75
  Q 3.09 5.78 2.97 5.82
  A 0.80 0.79 -8.7 0 0 2.44 6.54
  C 2.36 8.53 1.62 11.05 2.09 13.33
  C 2.35 14.63 3.24 15.50 3.80 16.68
  Q 5.05 19.35 4.62 16.50
  L 4.28 14.23
  Q 4.27 14.16 4.34 14.15
  Q 4.56 14.11 4.80 14.15
  Q 5.13 14.20 4.96 14.48
  L 4.82 14.73
  Q 4.69 14.96 4.95 15.04
  Q 5.28 15.13 5.63 14.96
  Q 5.90 14.84 5.89 14.55
  Q 5.88 14.37 5.88 14.19
  A 0.35 0.35 0.0 0 1 6.25 13.83
  L 7.00 13.87
  Q 7.07 13.87 6.99 14.02
  Q 6.95 14.10 6.96 14.21
  Z"
/>
<path fill="#9ace6f" d="
  M 14.07 3.88
  Q 15.35 2.95 16.01 2.82
  Q 17.29 2.56 17.72 3.44
  Q 17.94 3.87 17.56 4.17
  Q 16.19 5.25 15.25 6.73
  A 0.60 0.60 0.0 0 1 14.42 6.92
  L 9.88 4.13
  Q 7.72 2.80 10.16 2.10
  Q 12.15 1.52 13.47 3.75
  Q 13.70 4.14 14.07 3.88
  Z"
/>
<path fill="#9ace6f" d="
  M 8.37 4.38
  Q 10.04 4.80 10.13 4.87
  Q 13.02 7.10 9.51 6.16
  Q 7.62 5.66 6.04 6.67
  Q 5.40 7.08 4.96 6.46
  L 4.75 6.16
  A 0.71 0.71 0.0 0 1 4.89 5.20
  Q 6.49 3.89 8.37 4.38
  Z"
/>
<path fill="#9ace6f" d="
  M 17.68 9.49
  L 17.99 12.25
  Q 18.27 14.72 16.59 12.89
  Q 15.88 12.11 14.57 11.18
  Q 13.60 10.49 14.17 11.53
  Q 15.06 13.19 16.80 13.89
  A 0.62 0.62 0.0 0 1 17.19 14.56
  L 17.03 15.85
  A 0.90 0.90 0.0 0 1 15.51 16.38
  L 11.90 12.95
  Q 11.81 12.87 11.71 12.94
  L 11.51 13.10
  Q 11.43 13.16 11.49 13.24
  Q 12.95 15.36 15.15 16.83
  A 1.68 1.68 0.0 0 1 15.51 19.30
  L 13.60 21.59
  A 1.13 1.06 5.3 0 1 13.20 21.90
  Q 10.24 23.21 10.02 21.58
  A 0.75 0.75 0.0 0 1 10.89 20.73
  L 12.21 20.97
  Q 12.73 21.06 12.38 20.67
  Q 10.64 18.71 9.99 15.23
  C 8.99 9.88 14.36 9.56 17.28 5.29
  A 0.73 0.72 -59.3 0 1 18.20 5.05
  L 20.10 6.03
  Q 20.60 6.28 20.88 6.76
  Q 23.31 10.93 21.20 14.90
  C 20.11 16.96 18.94 18.73 16.81 19.55
  A 0.33 0.33 0.0 0 1 16.36 19.19
  Q 16.74 16.73 19.17 16.27
  Q 19.36 16.23 19.88 15.88
  Q 20.09 15.74 20.06 15.47
  A 0.26 0.25 -13.9 0 0 19.72 15.27
  Q 19.14 15.47 18.69 15.90
  Q 18.28 16.30 18.08 15.76
  Q 17.72 14.78 18.32 14.30
  Q 19.72 13.18 21.27 12.08
  Q 21.47 11.94 21.31 11.75
  L 21.08 11.46
  A 0.26 0.26 0.0 0 0 20.72 11.42
  L 19.29 12.61
  A 0.35 0.34 -15.2 0 1 18.73 12.29
  Q 18.99 10.69 18.29 9.31
  A 0.32 0.32 0.0 0 0 17.68 9.49
  Z"
/>
<path fill="#9ace6f" d="
  M 7.91 14.27
  Q 7.46 14.55 6.96 14.21
  Q 6.95 14.10 6.99 14.02
  Q 7.07 13.87 7.00 13.87
  L 6.25 13.83
  A 0.35 0.35 0.0 0 0 5.88 14.19
  Q 5.88 14.37 5.89 14.55
  Q 5.90 14.84 5.63 14.96
  Q 5.28 15.13 4.95 15.04
  Q 4.69 14.96 4.82 14.73
  L 4.96 14.48
  Q 5.13 14.20 4.80 14.15
  Q 4.56 14.11 4.34 14.15
  Q 4.27 14.16 4.28 14.23
  L 4.62 16.50
  Q 5.05 19.35 3.80 16.68
  C 3.24 15.50 2.35 14.63 2.09 13.33
  C 1.62 11.05 2.36 8.53 2.44 6.54
  A 0.80 0.79 -8.7 0 1 2.97 5.82
  Q 3.09 5.78 3.22 5.75
  A 0.57 0.56 71.2 0 1 3.89 6.08
  Q 4.42 7.36 5.67 7.86
  Q 6.17 8.06 6.46 8.52
  Q 7.50 10.20 7.85 12.18
  Q 7.85 12.19 7.86 12.19
  L 8.14 12.16
  Q 8.32 12.13 8.31 11.96
  Q 8.23 9.72 7.02 7.83
  A 0.51 0.51 0.0 0 1 7.44 7.05
  L 12.29 6.93
  Q 13.75 6.89 12.84 8.03
  Q 12.12 8.92 10.86 10.02
  C 9.43 11.28 8.89 12.70 7.91 14.27
  Z
  M 3.74 13.87
  Q 4.18 14.22 4.11 13.66
  Q 4.02 12.98 3.47 12.54
  A 0.21 0.21 0.0 0 0 3.13 12.71
  Q 3.18 13.42 3.74 13.87
  Z"
/>
<path fill="#020104" fill-opacity="0.996" d="
  M 3.74 13.87
  Q 3.18 13.42 3.13 12.71
  A 0.21 0.21 0.0 0 1 3.47 12.54
  Q 4.02 12.98 4.11 13.66
  Q 4.18 14.22 3.74 13.87
  Z"
/>
<path fill="#ddf5c6" d="
  M 6.96 14.21
  Q 7.46 14.55 7.91 14.27
  L 10.44 19.33
  Q 11.20 20.84 9.64 20.18
  L 8.23 19.59
  A 3.66 3.57 78.8 0 1 7.08 18.80
  Q 4.84 16.50 6.96 14.21
  Z"
/>
</svg>
