<?xml version="1.0" encoding="UTF-8" standalone="no"?>
<!DOCTYPE svg PUBLIC "-//W3C//DTD SVG 1.1//EN" "http://www.w3.org/Graphics/SVG/1.1/DTD/svg11.dtd">
<svg xmlns="http://www.w3.org/2000/svg" version="1.1" viewBox="0.00 0.00 24.00 24.00">
<path fill="#febb66" d="
  M 10.86 7.88
  Q 10.70 5.06 10.61 2.26
  Q 10.58 1.27 11.49 0.87
  Q 12.08 0.61 12.28 1.23
  Q 12.57 2.17 13.15 2.96
  A 1.23 1.20 28.5 0 1 13.39 3.74
  L 13.18 7.97
  Q 13.16 8.55 13.69 8.79
  C 15.06 9.41 16.55 9.99 17.57 11.03
  C 21.39 14.90 18.56 19.18 14.09 20.62
  A 1.16 1.15 -1.1 0 0 13.33 21.40
  Q 13.14 22.07 13.20 22.78
  A 0.67 0.66 88.0 0 1 12.53 23.50
  L 11.57 23.49
  Q 10.91 23.48 10.86 22.82
  L 10.76 21.57
  A 0.86 0.84 -81.0 0 0 10.25 20.85
  C 8.81 20.23 7.18 19.69 6.21 18.44
  Q 2.82 14.09 6.99 10.54
  C 7.89 9.77 9.26 9.43 10.41 8.73
  Q 10.89 8.44 10.86 7.88
  Z"
/>
</svg>
