<?xml version="1.0" encoding="UTF-8" standalone="no"?>
<!DOCTYPE svg PUBLIC "-//W3C//DTD SVG 1.1//EN" "http://www.w3.org/Graphics/SVG/1.1/DTD/svg11.dtd">
<svg xmlns="http://www.w3.org/2000/svg" version="1.1" viewBox="0.00 0.00 24.00 24.00">
<g stroke-width="5.00" fill="none" stroke-linecap="butt">
<path stroke="#ec5f24" vector-effect="non-scaling-stroke" d="
  M 15.27 19.09
  Q 12.38 20.41 8.62 19.24"
/>
<path stroke="#f39448" vector-effect="non-scaling-stroke" d="
  M 12.80 22.70
  Q 14.26 22.29 13.39 21.56
  Q 13.06 21.28 12.52 21.25
  Q 9.48 21.04 10.62 22.83"
/>
<path stroke="#f3ba8b" vector-effect="non-scaling-stroke" d="
  M 14.59 9.65
  C 16.37 5.16 11.02 2.40 9.31 6.19
  Q 9.04 6.80 9.26 9.36
  Q 9.44 11.37 8.61 13.84
  Q 8.06 15.49 9.37 16.53
  C 10.37 17.33 11.98 17.13 13.21 17.06
  A 2.24 2.23 0.9 0 0 15.30 15.04
  Q 15.46 13.43 14.70 11.94
  A 2.80 2.79 -47.8 0 1 14.59 9.65"
/>
<path stroke="#ef9e8c" vector-effect="non-scaling-stroke" d="
  M 13.51 7.51
  A 1.51 1.51 0.0 0 0 12.00 6.00
  A 1.51 1.51 0.0 0 0 10.49 7.51
  A 1.51 1.51 0.0 0 0 12.00 9.02
  A 1.51 1.51 0.0 0 0 13.51 7.51"
/>
<path stroke="#a1c1de" vector-effect="non-scaling-stroke" d="
  M 13.02 10.10
  L 10.82 10.25
  Q 10.64 10.27 10.67 10.44
  Q 10.69 10.57 10.70 10.70
  Q 10.74 10.94 10.97 10.94
  L 13.04 10.88
  Q 13.20 10.88 13.24 10.72
  Q 13.27 10.58 13.31 10.43
  A 0.27 0.27 0.0 0 0 13.02 10.10"
/>
<path stroke="#a1c1de" vector-effect="non-scaling-stroke" d="
  M 10.17 13.43
  Q 10.09 13.99 10.57 13.68
  Q 12.12 12.65 13.51 13.77
  A 0.27 0.27 0.0 0 0 13.93 13.48
  L 13.64 12.63
  A 0.89 0.87 -1.6 0 0 13.02 12.06
  Q 11.77 11.75 10.63 12.31
  A 0.72 0.72 0.0 0 0 10.24 12.86
  L 10.17 13.43"
/>
<path stroke="#a1c1de" vector-effect="non-scaling-stroke" d="
  M 14.0297 15.3780
  A 2.04 0.60 -0.9 0 0 11.9806 14.8101
  A 2.04 0.60 -0.9 0 0 9.9503 15.4420
  A 2.04 0.60 -0.9 0 0 11.9994 16.0099
  A 2.04 0.60 -0.9 0 0 14.0297 15.3780"
/>
</g>
<path fill="#ef7b23" d="
  M 15.27 19.09
  Q 12.38 20.41 8.62 19.24
  C 7.58 16.49 6.19 15.31 7.34 12.18
  C 8.27 9.63 7.43 4.53 7.17 1.58
  Q 7.14 1.27 7.46 1.27
  L 16.43 1.23
  A 0.33 0.33 0.0 0 1 16.76 1.58
  L 16.24 10.49
  Q 16.21 11.01 16.43 11.48
  Q 18.12 15.05 15.27 19.09
  Z
  M 14.59 9.65
  C 16.37 5.16 11.02 2.40 9.31 6.19
  Q 9.04 6.80 9.26 9.36
  Q 9.44 11.37 8.61 13.84
  Q 8.06 15.49 9.37 16.53
  C 10.37 17.33 11.98 17.13 13.21 17.06
  A 2.24 2.23 0.9 0 0 15.30 15.04
  Q 15.46 13.43 14.70 11.94
  A 2.80 2.79 -47.8 0 1 14.59 9.65
  Z"
/>
<path fill="#f6f8f3" d="
  M 14.59 9.65
  A 2.80 2.79 -47.8 0 0 14.70 11.94
  Q 15.46 13.43 15.30 15.04
  A 2.24 2.23 0.9 0 1 13.21 17.06
  C 11.98 17.13 10.37 17.33 9.37 16.53
  Q 8.06 15.49 8.61 13.84
  Q 9.44 11.37 9.26 9.36
  Q 9.04 6.80 9.31 6.19
  C 11.02 2.40 16.37 5.16 14.59 9.65
  Z
  M 13.51 7.51
  A 1.51 1.51 0.0 0 0 12.00 6.00
  A 1.51 1.51 0.0 0 0 10.49 7.51
  A 1.51 1.51 0.0 0 0 12.00 9.02
  A 1.51 1.51 0.0 0 0 13.51 7.51
  Z
  M 13.02 10.10
  L 10.82 10.25
  Q 10.64 10.27 10.67 10.44
  Q 10.69 10.57 10.70 10.70
  Q 10.74 10.94 10.97 10.94
  L 13.04 10.88
  Q 13.20 10.88 13.24 10.72
  Q 13.27 10.58 13.31 10.43
  A 0.27 0.27 0.0 0 0 13.02 10.10
  Z
  M 10.17 13.43
  Q 10.09 13.99 10.57 13.68
  Q 12.12 12.65 13.51 13.77
  A 0.27 0.27 0.0 0 0 13.93 13.48
  L 13.64 12.63
  A 0.89 0.87 -1.6 0 0 13.02 12.06
  Q 11.77 11.75 10.63 12.31
  A 0.72 0.72 0.0 0 0 10.24 12.86
  L 10.17 13.43
  Z
  M 14.0297 15.3780
  A 2.04 0.60 -0.9 0 0 11.9806 14.8101
  A 2.04 0.60 -0.9 0 0 9.9503 15.4420
  A 2.04 0.60 -0.9 0 0 11.9994 16.0099
  A 2.04 0.60 -0.9 0 0 14.0297 15.3780
  Z"
/>
<circle fill="#e84325" cx="12.00" cy="7.51" r="1.51"/>
<path fill="#4c8ac8" d="
  M 13.02 10.10
  A 0.27 0.27 0.0 0 1 13.31 10.43
  Q 13.27 10.58 13.24 10.72
  Q 13.20 10.88 13.04 10.88
  L 10.97 10.94
  Q 10.74 10.94 10.70 10.70
  Q 10.69 10.57 10.67 10.44
  Q 10.64 10.27 10.82 10.25
  L 13.02 10.10
  Z"
/>
<path fill="#4c8ac8" d="
  M 10.63 12.31
  Q 11.77 11.75 13.02 12.06
  A 0.89 0.87 -1.6 0 1 13.64 12.63
  L 13.93 13.48
  A 0.27 0.27 0.0 0 1 13.51 13.77
  Q 12.12 12.65 10.57 13.68
  Q 10.09 13.99 10.17 13.43
  L 10.24 12.86
  A 0.72 0.72 0.0 0 1 10.63 12.31
  Z"
/>
<ellipse fill="#4c8ac8" cx="0.00" cy="0.00" transform="translate(11.99,15.41) rotate(-0.9)" rx="2.04" ry="0.60"/>
<path fill="#e84325" d="
  M 15.27 19.09
  Q 16.18 20.72 15.65 22.47
  Q 15.50 22.96 15.00 22.91
  L 12.80 22.70
  Q 14.26 22.29 13.39 21.56
  Q 13.06 21.28 12.52 21.25
  Q 9.48 21.04 10.62 22.83
  L 9.03 22.96
  Q 8.52 23.00 8.36 22.51
  Q 7.86 20.91 8.62 19.24
  Q 12.38 20.41 15.27 19.09
  Z"
/>
<path fill="#fee56a" d="
  M 12.80 22.70
  L 10.62 22.83
  Q 9.48 21.04 12.52 21.25
  Q 13.06 21.28 13.39 21.56
  Q 14.26 22.29 12.80 22.70
  Z"
/>
</svg>
