<?xml version="1.0" encoding="UTF-8" standalone="no"?>
<!DOCTYPE svg PUBLIC "-//W3C//DTD SVG 1.1//EN" "http://www.w3.org/Graphics/SVG/1.1/DTD/svg11.dtd">
<svg xmlns="http://www.w3.org/2000/svg" version="1.1" viewBox="0.00 0.00 24.00 24.00">
<g stroke-width="5.00" fill="none" stroke-linecap="butt">
<path stroke="#a4904b" vector-effect="non-scaling-stroke" d="
  M 5.93 6.69
  Q 6.30 7.14 6.76 7.31
  Q 7.52 7.59 7.65 7.73
  Q 8.11 8.21 8.12 8.95
  A 0.72 0.71 81.9 0 1 7.61 9.64
  Q 6.74 9.90 6.51 10.43"
/>
<path stroke="#af874b" vector-effect="non-scaling-stroke" d="
  M 6.51 10.43
  Q 6.15 10.79 5.77 10.93
  Q 5.24 11.11 4.92 10.67
  L 3.66 8.95"
/>
<path stroke="#f15b4f" vector-effect="non-scaling-stroke" d="
  M 18.77 8.45
  Q 18.50 8.65 18.06 8.63
  Q 17.92 8.62 17.99 8.74
  Q 18.06 8.87 18.06 9.11"
/>
<path stroke="#f27a6e" vector-effect="non-scaling-stroke" d="
  M 18.06 9.11
  Q 15.51 9.59 13.39 7.95
  Q 12.98 7.63 12.47 7.61
  Q 11.24 7.54 10.19 8.12
  Q 9.79 8.34 9.58 8.74
  Q 9.17 9.55 8.36 10.07"
/>
<path stroke="#f15b4f" vector-effect="non-scaling-stroke" d="
  M 8.36 10.07
  Q 7.63 9.83 6.51 10.43"
/>
<path stroke="#fd716f" vector-effect="non-scaling-stroke" d="
  M 18.06 9.11
  L 19.36 9.64
  A 0.76 0.75 16.0 0 1 19.82 10.46
  Q 19.73 10.99 19.28 11.23
  Q 18.82 11.48 18.30 11.46
  Q 17.61 11.43 17.02 11.73
  A 0.40 0.40 0.0 0 0 17.00 12.44
  C 18.28 13.16 18.78 14.59 17.52 15.66
  C 16.03 16.92 12.93 15.32 11.13 14.92
  Q 10.74 14.84 10.63 14.45
  L 9.94 12.10
  A 0.38 0.38 0.0 0 0 9.23 12.06
  C 8.77 13.19 9.72 14.67 9.58 16.04
  Q 9.54 16.52 9.06 16.60
  Q 8.42 16.70 8.24 16.00
  Q 7.64 13.55 8.36 10.07"
/>
</g>
<path fill="#62bb47" d="
  M 5.93 6.69
  Q 6.30 7.14 6.76 7.31
  Q 7.52 7.59 7.65 7.73
  Q 8.11 8.21 8.12 8.95
  A 0.72 0.71 81.9 0 1 7.61 9.64
  Q 6.74 9.90 6.51 10.43
  Q 6.15 10.79 5.77 10.93
  Q 5.24 11.11 4.92 10.67
  L 3.66 8.95
  Q 3.50 7.70 4.08 6.73
  A 0.87 0.87 0.0 0 0 4.07 5.80
  Q 3.76 5.33 3.79 4.75
  Q 3.82 3.95 4.10 4.70
  Q 4.73 6.37 5.93 6.69
  Z"
/>
<path fill="#62bb47" d="
  M 16.30 6.25
  Q 16.36 5.51 16.95 5.08
  Q 17.90 4.36 17.31 5.39
  Q 16.88 6.14 16.73 6.96
  A 0.20 0.20 0.0 0 1 16.35 7.02
  Q 16.28 6.88 16.21 6.75
  Q 16.15 6.62 16.22 6.50
  Q 16.29 6.39 16.30 6.25
  Z"
/>
<path fill="#e5644e" d="
  M 18.77 8.45
  Q 18.50 8.65 18.06 8.63
  Q 17.92 8.62 17.99 8.74
  Q 18.06 8.87 18.06 9.11
  Q 15.51 9.59 13.39 7.95
  Q 12.98 7.63 12.47 7.61
  Q 11.24 7.54 10.19 8.12
  Q 9.79 8.34 9.58 8.74
  Q 9.17 9.55 8.36 10.07
  Q 7.63 9.83 6.51 10.43
  Q 6.74 9.90 7.61 9.64
  A 0.72 0.71 81.9 0 0 8.12 8.95
  Q 8.11 8.21 7.65 7.73
  Q 7.52 7.59 6.76 7.31
  Q 6.30 7.14 5.93 6.69
  Q 11.42 2.85 15.68 7.42
  Q 15.93 7.70 16.23 7.47
  L 16.48 7.27
  Q 16.64 7.14 16.77 7.29
  Q 17.53 8.14 18.77 8.45
  Z"
/>
<path fill="#fe8f8e" d="
  M 18.06 9.11
  L 19.36 9.64
  A 0.76 0.75 16.0 0 1 19.82 10.46
  Q 19.73 10.99 19.28 11.23
  Q 18.82 11.48 18.30 11.46
  Q 17.61 11.43 17.02 11.73
  A 0.40 0.40 0.0 0 0 17.00 12.44
  C 18.28 13.16 18.78 14.59 17.52 15.66
  C 16.03 16.92 12.93 15.32 11.13 14.92
  Q 10.74 14.84 10.63 14.45
  L 9.94 12.10
  A 0.38 0.38 0.0 0 0 9.23 12.06
  C 8.77 13.19 9.72 14.67 9.58 16.04
  Q 9.54 16.52 9.06 16.60
  Q 8.42 16.70 8.24 16.00
  Q 7.64 13.55 8.36 10.07
  Q 9.17 9.55 9.58 8.74
  Q 9.79 8.34 10.19 8.12
  Q 11.24 7.54 12.47 7.61
  Q 12.98 7.63 13.39 7.95
  Q 15.51 9.59 18.06 9.11
  Z"
/>
<path fill="#fc524f" d="
  M 18.77 8.45
  C 25.77 11.68 21.69 20.58 15.04 19.98
  C 13.35 19.83 12.15 18.68 10.30 18.85
  Q 3.79 19.44 1.71 13.49
  Q 0.76 10.75 3.66 8.95
  L 4.92 10.67
  Q 5.24 11.11 5.77 10.93
  Q 6.15 10.79 6.51 10.43
  Q 7.63 9.83 8.36 10.07
  Q 7.64 13.55 8.24 16.00
  Q 8.42 16.70 9.06 16.60
  Q 9.54 16.52 9.58 16.04
  C 9.72 14.67 8.77 13.19 9.23 12.06
  A 0.38 0.38 0.0 0 1 9.94 12.10
  L 10.63 14.45
  Q 10.74 14.84 11.13 14.92
  C 12.93 15.32 16.03 16.92 17.52 15.66
  C 18.78 14.59 18.28 13.16 17.00 12.44
  A 0.40 0.40 0.0 0 1 17.02 11.73
  Q 17.61 11.43 18.30 11.46
  Q 18.82 11.48 19.28 11.23
  Q 19.73 10.99 19.82 10.46
  A 0.76 0.75 16.0 0 0 19.36 9.64
  L 18.06 9.11
  Q 18.06 8.87 17.99 8.74
  Q 17.92 8.62 18.06 8.63
  Q 18.50 8.65 18.77 8.45
  Z"
/>
</svg>
